<?xml version="1.0" standalone="no"?>
<!DOCTYPE svg PUBLIC "-//W3C//DTD SVG 20010904//EN"
 "http://www.w3.org/TR/2001/REC-SVG-20010904/DTD/svg10.dtd">
<svg version="1.0" xmlns="http://www.w3.org/2000/svg"
 width="512.000000pt" height="512.000000pt" viewBox="0 0 512.000000 512.000000"
 preserveAspectRatio="xMidYMid meet">

<g transform="translate(0.000000,512.000000) scale(0.100000,-0.100000)"
fill="#000000" stroke="none">
<path d="M805 4786 c-215 -41 -383 -160 -457 -321 -18 -41 -23 -68 -23 -145 0
-77 5 -104 23 -145 56 -122 167 -222 310 -278 242 -94 529 -68 728 65 71 47
143 124 167 176 10 22 13 22 188 22 l177 0 4 -109 c3 -118 12 -141 72 -185 25
-19 44 -21 217 -24 l189 -3 -2 -427 -3 -426 -360 -143 c-390 -156 -416 -171
-431 -247 -10 -55 4 -104 39 -141 27 -28 92 -58 392 -178 l360 -143 3 -426 2
-427 -189 -3 c-173 -3 -192 -5 -217 -24 -60 -44 -69 -67 -72 -185 l-4 -109
-176 1 -177 0 -39 60 c-118 184 -410 290 -686 250 -231 -34 -414 -155 -492
-326 -32 -72 -32 -218 0 -290 56 -122 167 -222 310 -278 242 -94 529 -68 728
65 71 47 143 124 167 175 10 23 13 23 188 23 l177 0 4 -109 c3 -118 12 -141
72 -185 27 -21 38 -21 566 -21 528 0 539 0 566 21 60 44 69 67 72 185 l4 109
176 -1 177 0 40 -62 c121 -184 419 -290 695 -247 224 36 402 154 478 320 22
46 26 70 26 150 1 89 -1 100 -33 164 -136 277 -552 395 -906 257 -106 -41
-207 -118 -260 -198 l-40 -62 -177 0 -176 -1 -4 109 c-3 118 -12 141 -72 185
-25 19 -44 21 -217 24 l-189 3 2 427 3 426 360 143 c390 156 416 171 431 247
10 55 -4 104 -39 141 -27 28 -92 58 -392 178 l-360 143 -3 426 -2 427 189 3
c173 3 192 5 217 24 60 44 69 67 72 185 l4 109 176 -1 177 0 40 -62 c121 -184
419 -290 695 -247 224 36 402 154 478 320 22 46 26 70 26 150 1 89 -1 100 -33
164 -136 277 -552 395 -906 257 -106 -41 -207 -118 -260 -198 l-40 -62 -177 0
-176 -1 -4 109 c-3 118 -12 141 -72 185 -27 21 -38 21 -566 21 -528 0 -539 0
-566 -21 -60 -44 -69 -67 -72 -185 l-4 -109 -176 1 -177 0 -39 60 c-66 104
-206 195 -356 233 -89 23 -277 29 -365 12z m280 -321 c85 -22 156 -65 179
-107 17 -31 18 -39 7 -66 -37 -90 -245 -153 -406 -123 -90 16 -186 68 -210
114 l-20 37 20 37 c52 96 268 150 430 108z m1795 -145 l0 -160 -320 0 -320 0
0 160 0 160 320 0 320 0 0 -160z m1405 145 c85 -22 156 -65 179 -107 17 -31
18 -39 7 -66 -37 -90 -245 -153 -406 -123 -90 16 -186 68 -210 114 l-20 37 20
37 c52 96 268 150 430 108z m-1541 -1830 c97 -38 176 -72 176 -75 0 -3 -81
-37 -180 -77 l-180 -71 -180 71 c-99 40 -180 74 -180 77 0 6 352 149 361 146
4 0 86 -32 183 -71z m-1659 -1690 c85 -22 156 -65 179 -107 17 -31 18 -39 7
-66 -37 -90 -245 -153 -406 -123 -90 16 -186 68 -210 114 l-20 37 20 37 c52
96 268 150 430 108z m1795 -145 l0 -160 -320 0 -320 0 0 160 0 160 320 0 320
0 0 -160z m1405 145 c85 -22 156 -65 179 -107 17 -31 18 -39 7 -66 -37 -90
-245 -153 -406 -123 -90 16 -186 68 -210 114 l-20 37 20 37 c52 96 268 150
430 108z"/>
</g>
</svg>
