<?xml version="1.0" encoding="UTF-8" standalone="no" ?>
<!DOCTYPE svg PUBLIC "-//W3C//DTD SVG 1.1//EN" "http://www.w3.org/Graphics/SVG/1.1/DTD/svg11.dtd">
<svg xmlns="http://www.w3.org/2000/svg" xmlns:xlink="http://www.w3.org/1999/xlink" version="1.1" width="1080" height="1080" viewBox="0 0 1080 1080" xml:space="preserve">
<desc>Created with Fabric.js 5.2.4</desc>
<defs>
</defs>
<g transform="matrix(1 0 0 1 540 540)" id="2abf83cd-76bf-46c4-9dc2-bcee9b94ea05"  >
<rect style="stroke: none; stroke-width: 1; stroke-dasharray: none; stroke-linecap: butt; stroke-dashoffset: 0; stroke-linejoin: miter; stroke-miterlimit: 4; fill: rgb(255,255,255); fill-rule: nonzero; opacity: 1; visibility: hidden;" vector-effect="non-scaling-stroke"  x="-540" y="-540" rx="0" ry="0" width="1080" height="1080" />
</g>
<g transform="matrix(1 0 0 1 540 540)" id="777e1c24-d3eb-4cd5-a7a4-ae289047c74a"  >
</g>
<g transform="matrix(0.13 0 0 -0.13 706.56 242.73)"  >
<path style="stroke: none; stroke-width: 1; stroke-dasharray: none; stroke-linecap: butt; stroke-dashoffset: 0; stroke-linejoin: miter; stroke-miterlimit: 4; fill: rgb(64,255,0); fill-rule: nonzero; opacity: 1;" vector-effect="non-scaling-stroke"  transform=" translate(-5201.94, -6204.53)" d="M 5504 7448 C 5461 7315 5384 7198 5210 7000 C 4865 6607 4763 6478 4650 6290 C 4528 6088 4495 5974 4503 5790 C 4512 5593 4573 5423 4707 5221 C 4794 5091 4986 4887 5000 4911 C 5005 4918 5006 5041 5003 5184 C 4998 5398 5000 5465 5014 5558 C 5045 5770 5126 5968 5295 6250 C 5478 6555 5520 6643 5550 6790 C 5567 6872 5568 6873 5569 6825 C 5573 6620 5482 6290 5319 5923 C 5260 5789 5221 5668 5199 5550 C 5185 5475 5181 5184 5193 5126 L 5201 5088 L 5239 5151 C 5259 5186 5335 5303 5406 5410 C 5631 5745 5751 5959 5833 6165 C 5884 6293 5902 6392 5902 6540 C 5902 6741 5856 6925 5754 7140 C 5680 7295 5552 7498 5528 7500 C 5525 7500 5514 7476 5504 7448 z" stroke-linecap="round" />
</g>
<g transform="matrix(0.13 0 0 -0.13 400.98 376.25)"  >
<path style="stroke: none; stroke-width: 1; stroke-dasharray: none; stroke-linecap: butt; stroke-dashoffset: 0; stroke-linejoin: miter; stroke-miterlimit: 4; fill: rgb(0,226,255); fill-rule: nonzero; opacity: 1;" vector-effect="non-scaling-stroke"  transform=" translate(-2910.13, -5203.16)" d="M 2405 6445 C 2333 6415 2290 6372 2290 6330 C 2290 6313 2304 6245 2320 6178 C 2367 5990 2365 5983 2246 5865 C 2131 5751 2125 5749 1942 5793 C 1749 5840 1721 5831 1672 5713 C 1626 5605 1644 5574 1809 5472 C 1970 5372 1973 5369 1972 5205 C 1971 5031 1973 5034 1792 4925 C 1637 4831 1623 4798 1684 4668 C 1707 4620 1717 4609 1753 4595 C 1794 4580 1799 4580 1940 4614 C 2125 4659 2129 4658 2243 4546 C 2290 4500 2333 4454 2339 4442 C 2355 4411 2353 4374 2325 4254 C 2286 4089 2284 4072 2305 4034 C 2318 4010 2340 3994 2391 3971 C 2520 3913 2535 3922 2668 4145 C 2733 4254 2764 4270 2910 4270 C 3066 4270 3083 4259 3180 4100 C 3285 3927 3317 3913 3450 3980 C 3506 4008 3530 4039 3530 4083 C 3530 4095 3516 4166 3499 4241 C 3456 4423 3457 4426 3572 4540 C 3692 4659 3694 4659 3877 4615 C 3966 4594 4031 4583 4050 4586 C 4091 4595 4126 4633 4150 4696 C 4192 4810 4178 4835 4014 4935 C 3851 5036 3850 5037 3850 5204 C 3850 5370 3854 5377 4001 5466 C 4159 5561 4165 5567 4165 5632 C 4164 5712 4122 5793 4069 5814 C 4030 5830 4025 5829 3883 5795 C 3783 5771 3726 5762 3702 5766 C 3677 5771 3645 5796 3574 5867 C 3457 5985 3457 5987 3499 6169 C 3516 6244 3530 6317 3530 6332 C 3530 6373 3487 6415 3415 6444 C 3306 6488 3283 6475 3180 6308 C 3077 6143 3081 6145 2912 6145 C 2741 6145 2740 6146 2640 6311 C 2599 6377 2556 6438 2545 6446 C 2506 6471 2468 6471 2405 6445 z M 3039 5705 C 3134 5680 3201 5640 3275 5566 C 3478 5361 3482 5061 3283 4849 C 3180 4740 3062 4690 2909 4690 C 2707 4690 2531 4801 2444 4983 C 2306 5275 2465 5619 2777 5705 C 2842 5723 2973 5723 3039 5705 z" stroke-linecap="round" />
</g>
<g transform="matrix(0.13 0 0 -0.13 842.5 419.89)"  >
<path style="stroke: none; stroke-width: 1; stroke-dasharray: none; stroke-linecap: butt; stroke-dashoffset: 0; stroke-linejoin: miter; stroke-miterlimit: 4; fill: rgb(0,255,105); fill-rule: nonzero; opacity: 1;" vector-effect="non-scaling-stroke"  transform=" translate(-6221.54, -4875.82)" d="M 6754 6129 C 6316 5815 5993 5510 5743 5176 C 5466 4806 5305 4325 5284 3810 L 5278 3665 L 5377 3860 C 5521 4145 5631 4314 5861 4600 C 5925 4680 6060 4855 6161 4990 C 6393 5299 6568 5521 6613 5565 C 6628 5580 6618 5564 6489 5370 C 6167 4885 5834 4217 5661 3705 C 5619 3581 5613 3554 5625 3552 C 5648 3547 5808 3594 5908 3636 C 6110 3719 6373 3876 6556 4023 C 6734 4167 6927 4395 7009 4557 C 7251 5039 7211 5585 6893 6132 L 6854 6200 L 6754 6129 z" stroke-linecap="round" />
</g>
<g transform="matrix(0.13 0 0 -0.13 620.3 522.38)"  >
<path style="stroke: none; stroke-width: 1; stroke-dasharray: none; stroke-linecap: butt; stroke-dashoffset: 0; stroke-linejoin: miter; stroke-miterlimit: 4; fill: rgb(38,0,255); fill-rule: nonzero; opacity: 1;" vector-effect="non-scaling-stroke"  transform=" translate(-4555, -4107.13)" d="M 4273 4730 C 4235 4707 4232 4686 4255 4600 C 4263 4570 4270 4537 4270 4527 C 4270 4506 4184 4411 4154 4400 C 4142 4395 4102 4399 4055 4411 C 3984 4427 3973 4428 3953 4415 C 3929 4399 3904 4331 3913 4307 C 3916 4299 3950 4271 3989 4247 C 4027 4222 4063 4193 4068 4183 C 4081 4159 4081 4072 4069 4039 C 4060 4015 4007 3974 3943 3941 C 3898 3918 3906 3836 3956 3803 C 3977 3790 3987 3790 4049 3804 C 4155 3828 4161 3827 4219 3766 C 4247 3736 4270 3705 4270 3698 C 4270 3691 4263 3653 4254 3614 C 4232 3521 4239 3497 4291 3476 C 4314 3467 4341 3462 4352 3466 C 4362 3469 4391 3503 4415 3540 C 4439 3578 4468 3614 4479 3619 C 4504 3633 4606 3633 4631 3619 C 4642 3614 4671 3578 4695 3540 C 4719 3503 4748 3469 4758 3466 C 4769 3462 4796 3467 4819 3476 C 4871 3497 4878 3521 4856 3614 C 4847 3653 4840 3691 4840 3698 C 4840 3705 4863 3736 4891 3766 C 4950 3827 4963 3830 5063 3804 C 5141 3784 5163 3790 5185 3839 C 5212 3900 5201 3923 5121 3970 C 5045 4014 5037 4027 5035 4105 C 5033 4180 5043 4196 5120 4246 C 5159 4271 5194 4299 5197 4307 C 5206 4331 5181 4399 5157 4415 C 5138 4427 5125 4427 5051 4410 C 4999 4399 4960 4395 4950 4400 C 4925 4413 4840 4508 4840 4522 C 4840 4529 4847 4562 4855 4595 C 4877 4689 4875 4707 4838 4730 C 4800 4753 4761 4756 4738 4738 C 4730 4731 4706 4697 4686 4664 C 4666 4630 4643 4599 4634 4596 C 4610 4587 4487 4589 4471 4599 C 4463 4604 4438 4639 4415 4677 C 4378 4738 4370 4745 4339 4748 C 4318 4749 4292 4743 4273 4730 z M 4652 4355 C 4706 4336 4761 4286 4792 4228 C 4825 4165 4824 4053 4790 3987 C 4730 3869 4589 3814 4467 3860 C 4389 3889 4356 3919 4319 3996 C 4291 4053 4288 4067 4292 4123 C 4300 4224 4355 4304 4445 4349 C 4494 4374 4588 4376 4652 4355 z" stroke-linecap="round" />
</g>
<g transform="matrix(0.13 0 0 -0.13 194.97 522.32)"  >
<path style="stroke: none; stroke-width: 1; stroke-dasharray: none; stroke-linecap: butt; stroke-dashoffset: 0; stroke-linejoin: miter; stroke-miterlimit: 4; fill: rgb(0,4,255); fill-rule: nonzero; opacity: 1;" vector-effect="non-scaling-stroke"  transform=" translate(-1365.02, -4107.63)" d="M 940 4213 C 932 4210 913 4196 898 4182 C 876 4161 870 4147 870 4112 C 870 4058 882 4035 920 4015 C 962 3993 1766 3992 1809 4014 C 1866 4044 1878 4130 1831 4182 L 1802 4215 L 1378 4217 C 1145 4218 948 4216 940 4213 z" stroke-linecap="round" />
</g>
<g transform="matrix(0.13 0 0 -0.13 635.54 708)"  >
<path style="stroke: none; stroke-width: 1; stroke-dasharray: none; stroke-linecap: butt; stroke-dashoffset: 0; stroke-linejoin: miter; stroke-miterlimit: 4; fill: rgb(255,244,104); fill-rule: nonzero; opacity: 1;" vector-effect="non-scaling-stroke"  transform=" translate(-4669.31, -2715)" d="M 7010 3993 C 6996 3983 6798 3807 6570 3600 C 6342 3394 6112 3186 6059 3138 L 5963 3051 L 5957 2968 C 5954 2920 5943 2862 5931 2830 C 5902 2754 5830 2666 5758 2619 C 5639 2543 5673 2546 4940 2542 C 4580 2541 4275 2542 4263 2545 C 4228 2553 4215 2586 4234 2615 L 4250 2639 L 4923 2642 L 5595 2645 L 5661 2677 C 5796 2744 5866 2859 5858 3000 C 5855 3046 5845 3093 5832 3122 C 5801 3192 5730 3263 5657 3296 L 5595 3325 L 4540 3330 L 3485 3335 L 3379 3391 C 3252 3458 3170 3481 3031 3488 C 2910 3494 2819 3480 2706 3439 C 2548 3382 2504 3346 2117 2961 C 1921 2766 1761 2602 1763 2597 C 1764 2592 2028 2326 2349 2004 L 2933 1420 L 3054 1538 C 3216 1695 3322 1763 3482 1812 L 3555 1834 L 4730 1840 C 6017 1846 5930 1841 6026 1903 C 6048 1917 6394 2258 6796 2662 C 7627 3496 7575 3433 7575 3600 C 7575 3683 7571 3701 7548 3746 C 7518 3803 7453 3866 7415 3876 C 7358 3890 7301 3858 7105 3701 C 7034 3644 6968 3592 6960 3586 C 6945 3575 6974 3609 7106 3758 C 7146 3802 7181 3848 7185 3860 C 7206 3926 7143 4010 7072 4010 C 7051 4010 7023 4002 7010 3993 z" stroke-linecap="round" />
</g>
<g transform="matrix(0.13 0 0 -0.13 132.96 574)"  >
<path style="stroke: none; stroke-width: 1; stroke-dasharray: none; stroke-linecap: butt; stroke-dashoffset: 0; stroke-linejoin: miter; stroke-miterlimit: 4; fill: rgb(0,226,255); fill-rule: nonzero; opacity: 1;" vector-effect="non-scaling-stroke"  transform=" translate(-899.93, -3720)" d="M 364 3796 C 325 3757 320 3719 346 3669 C 376 3611 383 3610 905 3610 C 1417 3610 1418 3610 1454 3662 C 1463 3674 1470 3704 1470 3728 C 1470 3763 1464 3777 1441 3801 L 1412 3830 L 905 3830 L 398 3830 L 364 3796 z" stroke-linecap="round" />
</g>
<g transform="matrix(0.13 0 0 -0.13 267.83 861.93)"  >
<path style="stroke: none; stroke-width: 1; stroke-dasharray: none; stroke-linecap: butt; stroke-dashoffset: 0; stroke-linejoin: miter; stroke-miterlimit: 4; fill: rgb(255,0,0); fill-rule: nonzero; opacity: 1;" vector-effect="non-scaling-stroke"  transform=" translate(-1911.5, -1560.5)" d="M 1125 2350 C 949 2173 804 2028 803 2027 C 802 2025 1155 1670 1588 1237 L 2375 450 L 2698 773 L 3020 1095 L 2232 1883 L 1444 2671 L 1125 2350 z M 1898 1856 C 1913 1848 2088 1678 2287 1478 C 2566 1197 2650 1108 2655 1083 C 2668 1017 2603 951 2537 966 C 2513 971 2418 1060 2134 1344 C 1731 1746 1730 1748 1767 1813 C 1799 1866 1848 1882 1898 1856 z" stroke-linecap="round" />
</g>
</svg>