<?xml version="1.0" standalone="no"?>
<!DOCTYPE svg PUBLIC "-//W3C//DTD SVG 20010904//EN"
 "http://www.w3.org/TR/2001/REC-SVG-20010904/DTD/svg10.dtd">
<svg version="1.0" xmlns="http://www.w3.org/2000/svg"
 width="800.000000pt" height="800.000000pt" viewBox="0 0 800.000000 800.000000"
 preserveAspectRatio="xMidYMid meet">

<g transform="translate(0.000000,800.000000) scale(0.100000,-0.100000)"
fill="#000000" stroke="none">
<path d="M5504 7448 c-43 -133 -120 -250 -294 -448 -345 -393 -447 -522 -560
-710 -122 -202 -155 -316 -147 -500 9 -197 70 -367 204 -569 87 -130 279 -334
293 -310 5 7 6 130 3 273 -5 214 -3 281 11 374 31 212 112 410 281 692 183
305 225 393 255 540 17 82 18 83 19 35 4 -205 -87 -535 -250 -902 -59 -134
-98 -255 -120 -373 -14 -75 -18 -366 -6 -424 l8 -38 38 63 c20 35 96 152 167
259 225 335 345 549 427 755 51 128 69 227 69 375 0 201 -46 385 -148 600 -74
155 -202 358 -226 360 -3 0 -14 -24 -24 -52z"/>
<path d="M2405 6445 c-72 -30 -115 -73 -115 -115 0 -17 14 -85 30 -152 47
-188 45 -195 -74 -313 -115 -114 -121 -116 -304 -72 -193 47 -221 38 -270 -80
-46 -108 -28 -139 137 -241 161 -100 164 -103 163 -267 -1 -174 1 -171 -180
-280 -155 -94 -169 -127 -108 -257 23 -48 33 -59 69 -73 41 -15 46 -15 187 19
185 45 189 44 303 -68 47 -46 90 -92 96 -104 16 -31 14 -68 -14 -188 -39 -165
-41 -182 -20 -220 13 -24 35 -40 86 -63 129 -58 144 -49 277 174 65 109 96
125 242 125 156 0 173 -11 270 -170 105 -173 137 -187 270 -120 56 28 80 59
80 103 0 12 -14 83 -31 158 -43 182 -42 185 73 299 120 119 122 119 305 75 89
-21 154 -32 173 -29 41 9 76 47 100 110 42 114 28 139 -136 239 -163 101 -164
102 -164 269 0 166 4 173 151 262 158 95 164 101 164 166 -1 80 -43 161 -96
182 -39 16 -44 15 -186 -19 -100 -24 -157 -33 -181 -29 -25 5 -57 30 -128 101
-117 118 -117 120 -75 302 17 75 31 148 31 163 0 41 -43 83 -115 112 -109 44
-132 31 -235 -136 -103 -165 -99 -163 -268 -163 -171 0 -172 1 -272 166 -41
66 -84 127 -95 135 -39 25 -77 25 -140 -1z m634 -740 c95 -25 162 -65 236
-139 203 -205 207 -505 8 -717 -103 -109 -221 -159 -374 -159 -202 0 -378 111
-465 293 -138 292 21 636 333 722 65 18 196 18 262 0z"/>
<path d="M6754 6129 c-438 -314 -761 -619 -1011 -953 -277 -370 -438 -851
-459 -1366 l-6 -145 99 195 c144 285 254 454 484 740 64 80 199 255 300 390
232 309 407 531 452 575 15 15 5 -1 -124 -195 -322 -485 -655 -1153 -828
-1665 -42 -124 -48 -151 -36 -153 23 -5 183 42 283 84 202 83 465 240 648 387
178 144 371 372 453 534 242 482 202 1028 -116 1575 l-39 68 -100 -71z"/>
<path d="M4273 4730 c-38 -23 -41 -44 -18 -130 8 -30 15 -63 15 -73 0 -21 -86
-116 -116 -127 -12 -5 -52 -1 -99 11 -71 16 -82 17 -102 4 -24 -16 -49 -84
-40 -108 3 -8 37 -36 76 -60 38 -25 74 -54 79 -64 13 -24 13 -111 1 -144 -9
-24 -62 -65 -126 -98 -45 -23 -37 -105 13 -138 21 -13 31 -13 93 1 106 24 112
23 170 -38 28 -30 51 -61 51 -68 0 -7 -7 -45 -16 -84 -22 -93 -15 -117 37
-138 23 -9 50 -14 61 -10 10 3 39 37 63 74 24 38 53 74 64 79 25 14 127 14
152 0 11 -5 40 -41 64 -79 24 -37 53 -71 63 -74 11 -4 38 1 61 10 52 21 59 45
37 138 -9 39 -16 77 -16 84 0 7 23 38 51 68 59 61 72 64 172 38 78 -20 100
-14 122 35 27 61 16 84 -64 131 -76 44 -84 57 -86 135 -2 75 8 91 85 141 39
25 74 53 77 61 9 24 -16 92 -40 108 -19 12 -32 12 -106 -5 -52 -11 -91 -15
-101 -10 -25 13 -110 108 -110 122 0 7 7 40 15 73 22 94 20 112 -17 135 -38
23 -77 26 -100 8 -8 -7 -32 -41 -52 -74 -20 -34 -43 -65 -52 -68 -24 -9 -147
-7 -163 3 -8 5 -33 40 -56 78 -37 61 -45 68 -76 71 -21 1 -47 -5 -66 -18z
m379 -375 c54 -19 109 -69 140 -127 33 -63 32 -175 -2 -241 -60 -118 -201
-173 -323 -127 -78 29 -111 59 -148 136 -28 57 -31 71 -27 127 8 101 63 181
153 226 49 25 143 27 207 6z"/>
<path d="M940 4213 c-8 -3 -27 -17 -42 -31 -22 -21 -28 -35 -28 -70 0 -54 12
-77 50 -97 42 -22 846 -23 889 -1 57 30 69 116 22 168 l-29 33 -424 2 c-233 1
-430 -1 -438 -4z"/>
<path d="M7010 3993 c-14 -10 -212 -186 -440 -393 -228 -206 -458 -414 -511
-462 l-96 -87 -6 -83 c-3 -48 -14 -106 -26 -138 -29 -76 -101 -164 -173 -211
-119 -76 -85 -73 -818 -77 -360 -1 -665 0 -677 3 -35 8 -48 41 -29 70 l16 24
673 3 672 3 66 32 c135 67 205 182 197 323 -3 46 -13 93 -26 122 -31 70 -102
141 -175 174 l-62 29 -1055 5 -1055 5 -106 56 c-127 67 -209 90 -348 97 -121
6 -212 -8 -325 -49 -158 -57 -202 -93 -589 -478 -196 -195 -356 -359 -354
-364 1 -5 265 -271 586 -593 l584 -584 121 118 c162 157 268 225 428 274 l73
22 1175 6 c1287 6 1200 1 1296 63 22 14 368 355 770 759 831 834 779 771 779
938 0 83 -4 101 -27 146 -30 57 -95 120 -133 130 -57 14 -114 -18 -310 -175
-71 -57 -137 -109 -145 -115 -15 -11 14 23 146 172 40 44 75 90 79 102 21 66
-42 150 -113 150 -21 0 -49 -8 -62 -17z"/>
<path d="M364 3796 c-39 -39 -44 -77 -18 -127 30 -58 37 -59 559 -59 512 0
513 0 549 52 9 12 16 42 16 66 0 35 -6 49 -29 73 l-29 29 -507 0 -507 0 -34
-34z"/>
<path d="M1125 2350 c-176 -177 -321 -322 -322 -323 -1 -2 352 -357 785 -790
l787 -787 323 323 322 322 -788 788 -788 788 -319 -321z m773 -494 c15 -8 190
-178 389 -378 279 -281 363 -370 368 -395 13 -66 -52 -132 -118 -117 -24 5
-119 94 -403 378 -403 402 -404 404 -367 469 32 53 81 69 131 43z"/>
</g>
</svg>
